<svg xmlns="http://www.w3.org/2000/svg" version="1.1" xmlns:xlink="http://www.w3.org/1999/xlink" xmlns:svgjs="http://svgjs.dev/svgjs" width="1500" height="1251" viewBox="0 0 1500 1251"><g transform="matrix(1,0,0,1,0.3043468603216297,0.5064777327935417)"><svg viewBox="0 0 296 247" data-background-color="#0059dc" preserveAspectRatio="xMidYMid meet" height="1251" width="1500" xmlns="http://www.w3.org/2000/svg" xmlns:xlink="http://www.w3.org/1999/xlink"><g id="tight-bounds" transform="matrix(1,0,0,1,-0.06005778043680721,-0.09999999999999432)"><svg viewBox="0 0 296.1201155608736 247.2" height="247.2" width="296.1201155608736"><g><svg viewBox="0 0 395.52 330.17866352919486" height="247.2" width="296.1201155608736"><g transform="matrix(1,0,0,1,0,237.9323850481822)"><svg viewBox="0 0 395.52 92.24627848101265" height="92.24627848101265" width="395.52"><g id="textblocktransform"><svg viewBox="0 0 395.52 92.24627848101265" height="92.24627848101265" width="395.52" id="textblock"><g><svg viewBox="0 0 395.52 92.24627848101265" height="92.24627848101265" width="395.52"><g transform="matrix(1,0,0,1,0,0)"><svg width="395.52" viewBox="0.2 -36.25 157.99 36.85" height="92.24627848101265" data-palette-color="#ffffff"><path d="M26.6-18.15L38.9 0 25.5 0 19.15-10.7 18.95-10.7 12.6 0 0.2 0 12.5-18.2 1.4-34.4 14.75-34.4 19.95-25.6 20.15-25.6 25.4-34.4 37.75-34.4 26.6-18.15ZM54.95-27Q61-27 64.8-24.98 68.6-22.95 68.6-18.4L68.6-18.4 68.6-8.1Q68.6-7.25 69-6.7 69.4-6.15 70.2-6.15L70.2-6.15 72-6.15 72-0.4Q71.85-0.3 71.22-0.08 70.6 0.15 69.45 0.38 68.3 0.6 66.8 0.6L66.8 0.6Q63.9 0.6 62.02-0.28 60.15-1.15 59.45-2.7L59.45-2.7Q57.55-1.2 55.2-0.3 52.85 0.6 49.7 0.6L49.7 0.6Q40.4 0.6 40.4-6.8L40.4-6.8Q40.4-10.65 42.47-12.68 44.55-14.7 48.45-15.45 52.35-16.2 58.65-16.2L58.65-16.2 58.65-17.5Q58.65-19.05 57.57-19.85 56.5-20.65 54.8-20.65L54.8-20.65Q53.25-20.65 52.12-20.1 51-19.55 51-18.35L51-18.35 51-18.15 41.2-18.15Q41.15-18.4 41.15-18.85L41.15-18.85Q41.15-22.6 44.72-24.8 48.3-27 54.95-27L54.95-27ZM58.65-11.5Q54.4-11.5 52.37-10.58 50.35-9.65 50.35-8.1L50.35-8.1Q50.35-5.6 53.75-5.6L53.75-5.6Q55.7-5.6 57.17-6.65 58.65-7.7 58.65-9.25L58.65-9.25 58.65-11.5ZM91.3-27.05Q92.45-27.05 93.34-26.78 94.25-26.5 94.25-26.45L94.25-26.45 94.25-18.1 91.05-18.1Q87.95-18.1 86.57-16.5 85.2-14.9 85.2-11.75L85.2-11.75 85.2 0 75.25 0 75.25-26.4 83.4-26.4 84.05-22.4Q84.95-24.7 86.9-25.88 88.84-27.05 91.3-27.05L91.3-27.05ZM111.94-27Q118.44-27 122.47-24.23 126.49-21.45 126.49-15.75L126.49-15.75 116.84-15.75Q116.84-20.25 111.94-20.25L111.94-20.25Q107.04-20.25 107.04-14.6L107.04-14.6 107.04-11.75Q107.04-6.15 112.14-6.15L112.14-6.15Q117.24-6.15 117.24-10.75L117.24-10.75 126.49-10.75Q126.49-5 122.47-2.2 118.44 0.6 111.94 0.6L111.94 0.6Q104.99 0.6 101.04-2.9 97.09-6.4 97.09-13.2L97.09-13.2Q97.09-20 101.04-23.5 104.99-27 111.94-27L111.94-27ZM140.74-23.65Q142.34-25.25 144.49-26.13 146.64-27 148.99-27L148.99-27Q153.59-27 155.89-24.45 158.19-21.9 158.19-17.1L158.19-17.1 158.19 0 148.24 0 148.24-15.9Q148.24-17.6 147.37-18.63 146.49-19.65 144.89-19.65L144.89-19.65Q143.04-19.65 141.89-18.45 140.74-17.25 140.74-15.5L140.74-15.5 140.74 0 130.79 0 130.79-36.25 140.74-36.25 140.74-23.65Z" opacity="1" transform="matrix(1,0,0,1,0,0)" fill="#ffffff" class="wordmark-text-0" data-fill-palette-color="primary" id="text-0"></path></svg></g></svg></g></svg></g></svg></g><g transform="matrix(1,0,0,1,89.68237369525066,0)"><svg viewBox="0 0 216.15525260949866 216.15525260949866" height="216.15525260949866" width="216.15525260949866"><g><svg></svg></g><g id="icon-0"><svg viewBox="0 0 216.15525260949866 216.15525260949866" height="216.15525260949866" width="216.15525260949866"><g><rect width="196.54116487271082" height="196.54116487271082" x="9.807043868393919" y="9.807043868393919" fill="#2f84ff" data-fill-palette-color="accent"></rect><rect width="196.54116487271082" height="196.54116487271082" x="0" y="19.614087736787837" fill="#2f84ff" opacity="0.5" data-fill-palette-color="accent"></rect></g><g transform="matrix(1,0,0,1,28.020125338268343,38.744019094534195)"><svg viewBox="0 0 160.11500193296197 138.66721442043027" height="138.66721442043027" width="160.11500193296197"><g><svg xmlns="http://www.w3.org/2000/svg" xmlns:xlink="http://www.w3.org/1999/xlink" version="1.1" x="0" y="0" viewBox="11.393 16.564999999999998 77.214 66.87100000000001" enable-background="new 0 0 100 100" xml:space="preserve" height="138.66721442043027" width="160.11500193296197" class="icon-cg-0" data-fill-palette-color="quaternary" id="cg-0"><g fill="#ffffff" data-fill-palette-color="quaternary"><path fill="none" d="M87.453 50L74.231 27.099v0.5h-9.178l-7.905 7.906c0.651 1.087 1.032 2.353 1.032 3.709 0 3.998-3.252 7.25-7.25 7.25-3.997 0-7.25-3.252-7.25-7.25 0-3.997 3.253-7.25 7.25-7.25 1.557 0 2.997 0.498 4.18 1.337l8.701-8.702h8.977l-4.062-7.034H45.251v12.641L31.295 44.16c0.602 1.057 0.95 2.274 0.95 3.574 0 3.998-3.253 7.25-7.25 7.25-3.998 0-7.25-3.252-7.25-7.25 0-3.997 3.252-7.25 7.25-7.25 1.612 0 3.099 0.536 4.305 1.43l12.951-12.951V17.564H31.273L12.547 50l9.93 17.198 17.195-17.194h18.623c0.692-3.28 3.608-5.75 7.092-5.75 3.997 0 7.25 3.252 7.25 7.25 0 3.997-3.253 7.25-7.25 7.25-3.483 0-6.399-2.471-7.092-5.75H40.914L24.029 69.889l7.244 12.547h13.27v-6.188c-3.28-0.693-5.75-3.608-5.75-7.092 0-3.998 3.252-7.25 7.25-7.25 3.483 0 6.398 2.471 7.092 5.75h23.948v0.305L87.453 50z"></path><path fill="none" d="M69.637 51.504c0-2.344-1.907-4.25-4.25-4.25-2.344 0-4.25 1.906-4.25 4.25 0 2.343 1.906 4.25 4.25 4.25C67.729 55.754 69.637 53.847 69.637 51.504z"></path><path fill="none" d="M47.543 76.248v6.188h21.184l6.801-11.779H53.135C52.544 73.451 50.338 75.658 47.543 76.248z"></path><path fill="none" d="M50.293 69.156c0-2.344-1.907-4.25-4.25-4.25-2.344 0-4.25 1.906-4.25 4.25s1.906 4.25 4.25 4.25C48.386 73.406 50.293 71.5 50.293 69.156z"></path><path fill="none" d="M20.745 47.734c0 2.344 1.906 4.25 4.25 4.25 2.343 0 4.25-1.906 4.25-4.25s-1.907-4.25-4.25-4.25C22.651 43.484 20.745 45.391 20.745 47.734z"></path><path fill="none" d="M50.931 34.964c-2.343 0-4.25 1.907-4.25 4.25 0 2.344 1.907 4.25 4.25 4.25 2.344 0 4.25-1.906 4.25-4.25C55.181 36.871 53.274 34.964 50.931 34.964z"></path><path d="M74.231 25.1v-0.501h-0.289l-4.639-8.034H30.696L11.393 50l19.304 33.436h38.607l7.378-12.779h0.401v-0.695L88.607 50 74.231 25.1zM68.727 82.436H47.543v-6.188c2.795-0.59 5.001-2.797 5.592-5.592h22.393L68.727 82.436zM46.043 73.406c-2.344 0-4.25-1.906-4.25-4.25s1.906-4.25 4.25-4.25c2.343 0 4.25 1.906 4.25 4.25S48.386 73.406 46.043 73.406zM53.135 67.656c-0.693-3.279-3.608-5.75-7.092-5.75-3.998 0-7.25 3.252-7.25 7.25 0 3.483 2.47 6.398 5.75 7.092v6.188h-13.27l-7.244-12.547 16.885-16.885h17.381c0.692 3.279 3.608 5.75 7.092 5.75 3.997 0 7.25-3.253 7.25-7.25 0-3.998-3.253-7.25-7.25-7.25-3.483 0-6.399 2.47-7.092 5.75H39.672L22.477 67.198 12.547 50l18.727-32.436h10.978v11.398L29.3 41.914c-1.206-0.894-2.692-1.43-4.305-1.43-3.998 0-7.25 3.253-7.25 7.25 0 3.998 3.252 7.25 7.25 7.25 3.997 0 7.25-3.252 7.25-7.25 0-1.3-0.349-2.518-0.95-3.574l13.956-13.955V17.564h23.476l4.062 7.034h-8.977l-8.701 8.702c-1.183-0.839-2.623-1.337-4.18-1.337-3.997 0-7.25 3.253-7.25 7.25 0 3.998 3.253 7.25 7.25 7.25 3.998 0 7.25-3.252 7.25-7.25 0-1.356-0.381-2.622-1.032-3.709l7.905-7.906h9.178v-0.5L87.453 50l-10.37 17.961v-0.305H53.135zM61.137 51.504c0-2.344 1.906-4.25 4.25-4.25 2.343 0 4.25 1.906 4.25 4.25 0 2.343-1.907 4.25-4.25 4.25C63.043 55.754 61.137 53.847 61.137 51.504zM29.245 47.734c0 2.344-1.907 4.25-4.25 4.25-2.344 0-4.25-1.906-4.25-4.25s1.906-4.25 4.25-4.25C27.338 43.484 29.245 45.391 29.245 47.734zM55.181 39.214c0 2.344-1.906 4.25-4.25 4.25-2.343 0-4.25-1.906-4.25-4.25 0-2.343 1.907-4.25 4.25-4.25C53.274 34.964 55.181 36.871 55.181 39.214z" fill="#ffffff" data-fill-palette-color="quaternary"></path></g></svg></g></svg></g></svg></g></svg></g><g></g></svg></g><defs></defs></svg><rect width="296.1201155608736" height="247.2" fill="none" stroke="none" visibility="hidden"></rect></g></svg></g></svg>