<svg xmlns="http://www.w3.org/2000/svg" version="1.1" xmlns:xlink="http://www.w3.org/1999/xlink" xmlns:svgjs="http://svgjs.dev/svgjs" width="1000" height="1000" viewBox="0 0 1000 1000"><rect width="1000" height="1000" fill="#ffffff"></rect><g transform="matrix(0.7,0,0,0.7,149.5757575757575,391.1602385211137)"><svg viewBox="0 0 396 123" data-background-color="#ffffff" preserveAspectRatio="xMidYMid meet" height="310" width="1000" xmlns="http://www.w3.org/2000/svg" xmlns:xlink="http://www.w3.org/1999/xlink"><g id="tight-bounds" transform="matrix(1,0,0,1,0.24000000000003752,0.19258434867154506)"><svg viewBox="0 0 395.5199999999999 122.61483195592285" height="122.61483195592285" width="395.5199999999999"><g><svg viewBox="0 0 395.5199999999999 122.61483195592285" height="122.61483195592285" width="395.5199999999999"><g><svg viewBox="0 0 395.5199999999999 122.61483195592285" height="122.61483195592285" width="395.5199999999999"><g id="textblocktransform"><svg viewBox="0 0 395.5199999999999 122.61483195592285" height="122.61483195592285" width="395.5199999999999" id="textblock"><g><svg viewBox="0 0 395.5199999999999 122.61483195592285" height="122.61483195592285" width="395.5199999999999"><g transform="matrix(1,0,0,1,0,0)"><svg width="395.5199999999999" viewBox="0 -29.399999618530273 272.25 71.60000610351562" height="122.61483195592285" data-palette-color="#1c3de7"><svg></svg><svg></svg><g class="wordmark-text-0" data-fill-palette-color="primary" id="text-0"><path xmlns="http://www.w3.org/2000/svg" d="M12.55 0h-12.55l1.9-3 10.6-11.7-12.5-14.7h12.55l6.15 9.05h0.55l6.15-9.05h12.55l-1.95 2.95-10.55 11.75 12.5 14.7h-12.55l-6.15-9.1h-0.55zM61.8 0h-15.2c-2.233 0-3.817-0.117-4.75-0.35-0.933-0.233-1.4-0.467-1.4-0.7v0l2-5.25c0.4 0.1 1.593 0.207 3.58 0.32 1.98 0.12 4.87 0.18 8.67 0.18v0h3.55c0.833 0 1.36-0.093 1.58-0.28 0.213-0.18 0.32-0.503 0.32-0.97v0c0-0.567-0.123-0.927-0.37-1.08-0.253-0.147-0.763-0.22-1.53-0.22v0h-10.15c-2.433 0-4.317-0.46-5.65-1.38-1.333-0.913-2-2.553-2-4.92v0-1c0-1.233 0.167-2.36 0.5-3.38 0.333-1.013 1.05-1.83 2.15-2.45 1.1-0.613 2.767-0.92 5-0.92v0h14.8c2 0 3.417 0.117 4.25 0.35 0.833 0.233 1.25 0.467 1.25 0.7v0l-0.5 5.3c-0.533-0.1-1.873-0.21-4.02-0.33-2.153-0.113-5.113-0.17-8.88-0.17v0h-3.55c-0.833 0-1.357 0.09-1.57 0.27-0.22 0.187-0.33 0.497-0.33 0.93v0c0 0.433 0.11 0.74 0.33 0.92 0.213 0.187 0.737 0.28 1.57 0.28v0h10.35c2.6 0 4.517 0.567 5.75 1.7 1.233 1.133 1.85 2.717 1.85 4.75v0 0.95c0 1.2-0.15 2.307-0.45 3.32-0.3 1.02-0.983 1.847-2.05 2.48-1.067 0.633-2.767 0.95-5.1 0.95zM79.35 9.8h-1.35c-1.833 0-3.5-0.173-5-0.52-1.5-0.353-2.533-0.697-3.1-1.03v0l2-6.15c1 0.433 2.077 0.767 3.23 1 1.147 0.233 2.237 0.35 3.27 0.35v0h0.55c2.9 0 5-1.15 6.3-3.45v0h-3.05l-9.8-22.4h10.05l4.3 13.3 0.75 3.05h0.5l0.75-3.05 4.35-13.3h9.9l-0.8 3.05c-0.633 1.3-1.357 2.79-2.17 4.47-0.82 1.687-1.663 3.43-2.53 5.23-0.867 1.8-1.707 3.533-2.52 5.2-0.82 1.667-1.547 3.15-2.18 4.45v0c-1.633 3.333-3.517 5.8-5.65 7.4-2.133 1.6-4.733 2.4-7.8 2.4zM127.35 0h-15.2c-2.233 0-3.817-0.117-4.75-0.35-0.933-0.233-1.4-0.467-1.4-0.7v0l2-5.25c0.4 0.1 1.593 0.207 3.58 0.32 1.98 0.12 4.87 0.18 8.67 0.18v0h3.55c0.833 0 1.36-0.093 1.58-0.28 0.213-0.18 0.32-0.503 0.32-0.97v0c0-0.567-0.123-0.927-0.37-1.08-0.253-0.147-0.763-0.22-1.53-0.22v0h-10.15c-2.433 0-4.317-0.46-5.65-1.38-1.333-0.913-2-2.553-2-4.92v0-1c0-1.233 0.167-2.36 0.5-3.38 0.333-1.013 1.05-1.83 2.15-2.45 1.1-0.613 2.767-0.92 5-0.92v0h14.8c2 0 3.417 0.117 4.25 0.35 0.833 0.233 1.25 0.467 1.25 0.7v0l-0.5 5.3c-0.533-0.1-1.873-0.21-4.02-0.33-2.153-0.113-5.113-0.17-8.88-0.17v0h-3.55c-0.833 0-1.36 0.09-1.58 0.27-0.213 0.187-0.32 0.497-0.32 0.93v0c0 0.433 0.107 0.74 0.32 0.92 0.22 0.187 0.747 0.28 1.58 0.28v0h10.35c2.6 0 4.517 0.567 5.75 1.7 1.233 1.133 1.85 2.717 1.85 4.75v0 0.95c0 1.2-0.15 2.307-0.45 3.32-0.3 1.02-0.983 1.847-2.05 2.48-1.067 0.633-2.767 0.95-5.1 0.95zM152.25 0h-3.1c-2.533 0-4.267-0.533-5.2-1.6-0.933-1.067-1.4-2.667-1.4-4.8v0-9.7h-4.1v-6.3h2.1c0.567 0 1.023-0.11 1.37-0.33 0.353-0.213 0.58-0.603 0.68-1.17v0l0.95-5.35h8.2v6.85h8.35v6.3h-8.35v7.75c0 0.833 0.2 1.383 0.6 1.65 0.4 0.267 1 0.4 1.8 0.4v0h5l1 5.8c-0.7 0.1-1.767 0.207-3.2 0.32-1.433 0.12-3 0.18-4.7 0.18zM182.45 0h-10.65c-2.2 0-3.893-0.317-5.08-0.95-1.18-0.633-1.987-1.51-2.42-2.63-0.433-1.113-0.65-2.403-0.65-3.87v0-7.55c0-1.333 0.223-2.56 0.67-3.68 0.453-1.113 1.263-2.013 2.43-2.7 1.167-0.68 2.85-1.02 5.05-1.02v0h10.35c2.6 0 4.59 0.307 5.97 0.92 1.387 0.62 2.337 1.487 2.85 2.6 0.52 1.12 0.78 2.413 0.78 3.88v0 6.4h-8.75c-3 0-5.277-0.067-6.83-0.2-1.547-0.133-2.637-0.217-3.27-0.25v0 0.75c-0.033 1.333 0.767 2 2.4 2v0h1.55c2.667 0 5.133-0.06 7.4-0.18 2.267-0.113 3.95-0.22 5.05-0.32v0l3 4.75c0 0.333-0.283 0.65-0.85 0.95-0.567 0.3-1.56 0.557-2.98 0.77-1.413 0.22-3.42 0.33-6.02 0.33zM172.9-14.1v0.7h9.6v-0.7c0-0.667-0.06-1.133-0.18-1.4-0.113-0.267-0.47-0.433-1.07-0.5-0.6-0.067-1.617-0.1-3.05-0.1v0h-2.9c-1.6 0-2.4 0.667-2.4 2zM206.55 0h-9.25v-22.4h7.25l1.25 0.6c0.967-0.167 2.057-0.31 3.27-0.43 1.22-0.113 2.53-0.17 3.93-0.17v0h2.7c0.967 0 1.9 0.123 2.8 0.37 0.9 0.253 1.567 0.613 2 1.08v0c0.567-0.3 1.183-0.56 1.85-0.78 0.667-0.213 1.523-0.38 2.57-0.5 1.053-0.113 2.397-0.17 4.03-0.17v0h2.5c1.667 0 2.95 0.233 3.85 0.7 0.9 0.467 1.54 1.05 1.92 1.75 0.387 0.7 0.62 1.41 0.7 2.13 0.087 0.713 0.13 1.32 0.13 1.82v0 16h-9.15v-14.1c0-1.333-0.8-2-2.4-2v0h-2.8c-0.533 0-0.9 0.067-1.1 0.2-0.2 0.133-0.3 0.433-0.3 0.9v0 15h-9.3v-14.1c0-1.333-0.8-2-2.4-2v0h-2.55c-0.633 0-1.043 0.057-1.23 0.17-0.18 0.12-0.27 0.43-0.27 0.93v0zM264.65 0h-15.2c-2.233 0-3.817-0.117-4.75-0.35-0.933-0.233-1.4-0.467-1.4-0.7v0l2-5.25c0.4 0.1 1.59 0.207 3.57 0.32 1.987 0.12 4.88 0.18 8.68 0.18v0h3.55c0.833 0 1.357-0.093 1.57-0.28 0.22-0.18 0.33-0.503 0.33-0.97v0c0-0.567-0.123-0.927-0.37-1.08-0.253-0.147-0.763-0.22-1.53-0.22v0h-10.15c-2.433 0-4.317-0.46-5.65-1.38-1.333-0.913-2-2.553-2-4.92v0-1c0-1.233 0.167-2.36 0.5-3.38 0.333-1.013 1.05-1.83 2.15-2.45 1.1-0.613 2.767-0.92 5-0.92v0h14.8c2 0 3.417 0.117 4.25 0.35 0.833 0.233 1.25 0.467 1.25 0.7v0l-0.5 5.3c-0.533-0.1-1.877-0.21-4.03-0.33-2.147-0.113-5.103-0.17-8.87-0.17v0h-3.55c-0.833 0-1.36 0.09-1.58 0.27-0.213 0.187-0.32 0.497-0.32 0.93v0c0 0.433 0.107 0.74 0.32 0.92 0.22 0.187 0.747 0.28 1.58 0.28v0h10.35c2.6 0 4.517 0.567 5.75 1.7 1.233 1.133 1.85 2.717 1.85 4.75v0 0.95c0 1.2-0.15 2.307-0.45 3.32-0.3 1.02-0.983 1.847-2.05 2.48-1.067 0.633-2.767 0.95-5.1 0.95z" fill="#1c3de7" fill-rule="nonzero" stroke="none" stroke-width="1" stroke-linecap="butt" stroke-linejoin="miter" stroke-miterlimit="10" stroke-dasharray="" stroke-dashoffset="0" font-family="none" font-weight="none" font-size="none" text-anchor="none" style="mix-blend-mode: normal" data-fill-palette-color="primary" opacity="1"></path><path xmlns="http://www.w3.org/2000/svg" d="M22.35 42.2h-11.65l-10.7-29.35h10.65l5 16.7 1.15 4.35h0.5l0.65-2.9 5.15-18.15h11.5l5.45 18.15 0.9 2.9h0.5l1.15-4.35 4.55-16.7h10.5l-0.5 3-10.3 26.35h-11.5l-5.3-16.15-1-4.2h-0.5l-0.95 4.2zM67.6 42.2h-1.5c-2.933 0-5.033-0.55-6.3-1.65-1.267-1.1-1.9-2.933-1.9-5.5v0c0-2.367 0.66-4.083 1.98-5.15 1.313-1.067 3.387-1.6 6.22-1.6v0h1.55c1.867 0 3.65 0.067 5.35 0.2 1.7 0.133 3.167 0.267 4.4 0.4v0-0.8c0-0.467-0.1-0.917-0.3-1.35-0.2-0.433-0.9-0.65-2.1-0.65v0h-2.5c-3.633 0-6.433 0.057-8.4 0.17-1.967 0.12-3.183 0.23-3.65 0.33v0l-0.55-5.3c0-0.333 0.583-0.61 1.75-0.83 1.167-0.213 2.767-0.38 4.8-0.5 2.033-0.113 4.35-0.17 6.95-0.17v0h5c2.2 0 3.883 0.323 5.05 0.97 1.167 0.653 1.967 1.53 2.4 2.63 0.433 1.1 0.65 2.367 0.65 3.8v0 15h-7.1l-1.95-1c-0.8 0.167-2.073 0.373-3.82 0.62-1.753 0.253-3.763 0.38-6.03 0.38zM69 36.3v0h6.9c0.733 0 1.167-0.067 1.3-0.2 0.133-0.133 0.2-0.55 0.2-1.25v0-1.75h-8.4c-0.633 0-1.1 0.117-1.4 0.35-0.3 0.233-0.45 0.683-0.45 1.35v0c0 0.633 0.15 1.04 0.45 1.22 0.3 0.187 0.767 0.28 1.4 0.28zM101.35 42.2h-9.1v-22.4h7.1l1.9 1c1.533-1 3.567-1.5 6.1-1.5v0c1.667 0 3.133 0.173 4.4 0.52 1.267 0.353 2.293 0.73 3.08 1.13 0.78 0.4 1.27 0.683 1.47 0.85v0l-2.5 6.5c-0.333-0.233-0.96-0.55-1.88-0.95-0.913-0.4-1.987-0.777-3.22-1.13-1.233-0.347-2.533-0.52-3.9-0.52v0h-0.55c-0.933 0-1.65 0.157-2.15 0.47-0.5 0.32-0.75 1.013-0.75 2.08v0zM138.1 42.2h-10.65c-2.2 0-3.89-0.317-5.07-0.95-1.187-0.633-1.997-1.51-2.43-2.63-0.433-1.113-0.65-2.403-0.65-3.87v0-7.55c0-1.333 0.223-2.56 0.67-3.68 0.453-1.113 1.263-2.013 2.43-2.7 1.167-0.68 2.85-1.02 5.05-1.02v0h10.35c2.6 0 4.593 0.307 5.98 0.92 1.38 0.62 2.33 1.487 2.85 2.6 0.513 1.12 0.77 2.413 0.77 3.88v0 6.4h-8.75c-3 0-5.277-0.067-6.83-0.2-1.547-0.133-2.637-0.217-3.27-0.25v0 0.75c-0.033 1.333 0.767 2 2.4 2v0h1.55c2.667 0 5.133-0.06 7.4-0.18 2.267-0.113 3.95-0.22 5.05-0.32v0l3 4.75c0 0.333-0.283 0.65-0.85 0.95-0.567 0.3-1.557 0.557-2.97 0.77-1.42 0.22-3.43 0.33-6.03 0.33zM128.55 28.1v0.7h9.6v-0.7c0-0.667-0.06-1.133-0.18-1.4-0.113-0.267-0.47-0.433-1.07-0.5-0.6-0.067-1.617-0.1-3.05-0.1v0h-2.9c-1.6 0-2.4 0.667-2.4 2z" fill="#2e9bff" fill-rule="nonzero" stroke="none" stroke-width="1" stroke-linecap="butt" stroke-linejoin="miter" stroke-miterlimit="10" stroke-dasharray="" stroke-dashoffset="0" font-family="none" font-weight="none" font-size="none" text-anchor="none" style="mix-blend-mode: normal" data-fill-palette-color="secondary" opacity="1"></path></g></svg></g></svg></g></svg></g></svg></g></svg></g><defs></defs></svg><rect width="395.5199999999999" height="122.61483195592285" fill="none" stroke="none" visibility="hidden"></rect></g></svg></g></svg>